cl__1 = 0.05;
Point(1) = {0, 0, 0, cl__1};
Point(2) = {1, 0, 0, cl__1};
Point(3) = {1, 0, 0.05, cl__1};
Point(4) = {1, 0, 0.1, cl__1};
Point(5) = {0, 0, 0.1, cl__1};
Point(13) = {0, 0.05, 0, cl__1};
Point(14) = {0, 0.05, 0.1, cl__1};
Point(20) = {1, 0.05, 0, cl__1};
Point(25) = {1, 0.05, 0.05, cl__1};
Point(30) = {1, 0.05, 0.1, cl__1};
Line(6) = {1, 2};
Line(7) = {2, 3};
Line(8) = {3, 4};
Line(9) = {4, 5};
Line(10) = {5, 1};
Line(15) = {5, 14};
Line(16) = {1, 13};
Line(17) = {13, 14};
Line(21) = {2, 20};
Line(22) = {20, 13};
Line(26) = {3, 25};
Line(27) = {25, 20};
Line(31) = {4, 30};
Line(32) = {30, 25};
Line(35) = {14, 30};
Curve Loop(12) = {10, 6, 7, 8, 9};
Plane Surface(12) = {12};
Curve Loop(19) = {17, -15, 10, 16};
Plane Surface(19) = {19};
Curve Loop(24) = {22, -16, 6, 21};
Plane Surface(24) = {24};
Curve Loop(29) = {27, -21, 7, 26};
Plane Surface(29) = {29};
Curve Loop(34) = {32, -26, 8, 31};
Plane Surface(34) = {34};
Curve Loop(37) = {35, -31, 9, 15};
Plane Surface(37) = {37};
Curve Loop(39) = {35, 32, 27, 22, 17};
Plane Surface(39) = {39};
Surface Loop(40) = {39, 37, 34, 24, 29, 19, 12};
Volume(40) = {40};
Physical Volume(1) = {40};
